<?xml version="1.0" encoding="UTF-8" standalone="no"?>
<!DOCTYPE svg PUBLIC "-//W3C//DTD SVG 1.1//EN"
 "http://www.w3.org/Graphics/SVG/1.1/DTD/svg11.dtd">
<!-- Generated by graphviz version 2.38.0 (20140413.2041)
 -->
<!-- Title: snakemake_dag Pages: 1 -->
<svg width="288pt" height="260pt"
 viewBox="0.00 0.00 287.50 260.00" xmlns="http://www.w3.org/2000/svg" xmlns:xlink="http://www.w3.org/1999/xlink">
<g id="graph0" class="graph" transform="scale(1 1) rotate(0) translate(4 256)">
<title>snakemake_dag</title>
<polygon fill="white" stroke="none" points="-4,4 -4,-256 283.5,-256 283.5,4 -4,4"/>
<!-- 1 -->
<g id="node1" class="node"><title>1</title>
<path fill="none" stroke="#569ad8" stroke-width="2" stroke-dasharray="5,2" d="M93,-180C93,-180 12,-180 12,-180 6,-180 0,-174 0,-168 0,-168 0,-156 0,-156 0,-150 6,-144 12,-144 12,-144 93,-144 93,-144 99,-144 105,-150 105,-156 105,-156 105,-168 105,-168 105,-174 99,-180 93,-180"/>
<text text-anchor="middle" x="52.5" y="-165" font-family="Helvetica,sans-Serif" font-size="10.00">Exploratory analysis</text>
<text text-anchor="middle" x="52.5" y="-154" font-family="Helvetica,sans-Serif" font-size="10.00">(Jupter)</text>
</g>
<!-- 2 -->
<g id="node2" class="node"><title>2</title>
<path fill="none" stroke="#59d856" stroke-width="2" stroke-dasharray="5,2" d="M151.5,-36C151.5,-36 85.5,-36 85.5,-36 79.5,-36 73.5,-30 73.5,-24 73.5,-24 73.5,-12 73.5,-12 73.5,-6 79.5,-0 85.5,-0 85.5,-0 151.5,-0 151.5,-0 157.5,-0 163.5,-6 163.5,-12 163.5,-12 163.5,-24 163.5,-24 163.5,-30 157.5,-36 151.5,-36"/>
<text text-anchor="middle" x="118.5" y="-21" font-family="Helvetica,sans-Serif" font-size="10.00">Compare models</text>
<text text-anchor="middle" x="118.5" y="-10" font-family="Helvetica,sans-Serif" font-size="10.00">(Jupyter)</text>
</g>
<!-- 3 -->
<g id="node3" class="node"><title>3</title>
<path fill="none" stroke="#56d8d8" stroke-width="2" d="M267.5,-36C267.5,-36 193.5,-36 193.5,-36 187.5,-36 181.5,-30 181.5,-24 181.5,-24 181.5,-12 181.5,-12 181.5,-6 187.5,-0 193.5,-0 193.5,-0 267.5,-0 267.5,-0 273.5,-0 279.5,-6 279.5,-12 279.5,-12 279.5,-24 279.5,-24 279.5,-30 273.5,-36 267.5,-36"/>
<text text-anchor="middle" x="230.5" y="-15.5" font-family="Helvetica,sans-Serif" font-size="10.00">Create submission</text>
</g>
<!-- 4 -->
<g id="node4" class="node"><title>4</title>
<path fill="none" stroke="#d89556" stroke-width="2" d="M141.5,-252C141.5,-252 85.5,-252 85.5,-252 79.5,-252 73.5,-246 73.5,-240 73.5,-240 73.5,-228 73.5,-228 73.5,-222 79.5,-216 85.5,-216 85.5,-216 141.5,-216 141.5,-216 147.5,-216 153.5,-222 153.5,-228 153.5,-228 153.5,-240 153.5,-240 153.5,-246 147.5,-252 141.5,-252"/>
<text text-anchor="middle" x="113.5" y="-231.5" font-family="Helvetica,sans-Serif" font-size="10.00">Download data</text>
</g>
<!-- 4&#45;&gt;1 -->
<g id="edge1" class="edge"><title>4&#45;&gt;1</title>
<path fill="none" stroke="grey" stroke-width="2" d="M98.4213,-215.697C91.1083,-207.305 82.19,-197.07 74.1649,-187.861"/>
<polygon fill="grey" stroke="grey" stroke-width="2" points="76.6137,-185.344 67.4052,-180.104 71.3363,-189.943 76.6137,-185.344"/>
</g>
<!-- 6 -->
<g id="node6" class="node"><title>6</title>
<path fill="none" stroke="#d6d856" stroke-width="2" d="M213.5,-180C213.5,-180 135.5,-180 135.5,-180 129.5,-180 123.5,-174 123.5,-168 123.5,-168 123.5,-156 123.5,-156 123.5,-150 129.5,-144 135.5,-144 135.5,-144 213.5,-144 213.5,-144 219.5,-144 225.5,-150 225.5,-156 225.5,-156 225.5,-168 225.5,-168 225.5,-174 219.5,-180 213.5,-180"/>
<text text-anchor="middle" x="174.5" y="-159.5" font-family="Helvetica,sans-Serif" font-size="10.00">Feature engineering</text>
</g>
<!-- 4&#45;&gt;6 -->
<g id="edge5" class="edge"><title>4&#45;&gt;6</title>
<path fill="none" stroke="grey" stroke-width="2" d="M128.579,-215.697C135.892,-207.305 144.81,-197.07 152.835,-187.861"/>
<polygon fill="grey" stroke="grey" stroke-width="2" points="155.664,-189.943 159.595,-180.104 150.386,-185.344 155.664,-189.943"/>
</g>
<!-- 5 -->
<g id="node5" class="node"><title>5</title>
<path fill="none" stroke="#97d856" stroke-width="2" d="M218.5,-108C218.5,-108 130.5,-108 130.5,-108 124.5,-108 118.5,-102 118.5,-96 118.5,-96 118.5,-84 118.5,-84 118.5,-78 124.5,-72 130.5,-72 130.5,-72 218.5,-72 218.5,-72 224.5,-72 230.5,-78 230.5,-84 230.5,-84 230.5,-96 230.5,-96 230.5,-102 224.5,-108 218.5,-108"/>
<text text-anchor="middle" x="174.5" y="-87.5" font-family="Helvetica,sans-Serif" font-size="10.00">Cross&#45;validate models</text>
</g>
<!-- 5&#45;&gt;2 -->
<g id="edge2" class="edge"><title>5&#45;&gt;2</title>
<path fill="none" stroke="grey" stroke-width="2" d="M160.657,-71.6966C154.011,-63.3893 145.922,-53.2771 138.613,-44.1407"/>
<polygon fill="grey" stroke="grey" stroke-width="2" points="141.164,-41.7266 132.183,-36.1043 135.697,-46.0995 141.164,-41.7266"/>
</g>
<!-- 5&#45;&gt;3 -->
<g id="edge3" class="edge"><title>5&#45;&gt;3</title>
<path fill="none" stroke="grey" stroke-width="2" d="M188.343,-71.6966C194.989,-63.3893 203.078,-53.2771 210.387,-44.1407"/>
<polygon fill="grey" stroke="grey" stroke-width="2" points="213.303,-46.0995 216.817,-36.1043 207.836,-41.7266 213.303,-46.0995"/>
</g>
<!-- 6&#45;&gt;5 -->
<g id="edge4" class="edge"><title>6&#45;&gt;5</title>
<path fill="none" stroke="grey" stroke-width="2" d="M174.5,-143.697C174.5,-135.983 174.5,-126.712 174.5,-118.112"/>
<polygon fill="grey" stroke="grey" stroke-width="2" points="178,-118.104 174.5,-108.104 171,-118.104 178,-118.104"/>
</g>
</g>
</svg>
