<?xml version="1.0" encoding="UTF-8" standalone="no"?>
<!DOCTYPE svg PUBLIC "-//W3C//DTD SVG 1.1//EN"
 "http://www.w3.org/Graphics/SVG/1.1/DTD/svg11.dtd">
<!-- Generated by graphviz version 2.38.0 (20140413.2041)
 -->
<!-- Title: snakemake_dag Pages: 1 -->
<svg width="72pt" height="260pt"
 viewBox="0.00 0.00 72.00 260.00" xmlns="http://www.w3.org/2000/svg" xmlns:xlink="http://www.w3.org/1999/xlink">
<g id="graph0" class="graph" transform="scale(1 1) rotate(0) translate(4 256)">
<title>snakemake_dag</title>
<polygon fill="white" stroke="none" points="-4,4 -4,-256 68,-256 68,4 -4,4"/>
<!-- 0 -->
<g id="node1" class="node"><title>0</title>
<path fill="none" stroke="#59d856" stroke-width="2" d="M52,-36C52,-36 12,-36 12,-36 6,-36 0,-30 0,-24 0,-24 0,-12 0,-12 0,-6 6,-0 12,-0 12,-0 52,-0 52,-0 58,-0 64,-6 64,-12 64,-12 64,-24 64,-24 64,-30 58,-36 52,-36"/>
<text text-anchor="middle" x="32" y="-15.5" font-family="sans" font-size="10.00">submission</text>
</g>
<!-- 1 -->
<g id="node2" class="node"><title>1</title>
<path fill="none" stroke="#d6d856" stroke-width="2" d="M47,-108C47,-108 17,-108 17,-108 11,-108 5,-102 5,-96 5,-96 5,-84 5,-84 5,-78 11,-72 17,-72 17,-72 47,-72 47,-72 53,-72 59,-78 59,-84 59,-84 59,-96 59,-96 59,-102 53,-108 47,-108"/>
<text text-anchor="middle" x="32" y="-87.5" font-family="sans" font-size="10.00">crossval</text>
</g>
<!-- 1&#45;&gt;0 -->
<g id="edge1" class="edge"><title>1&#45;&gt;0</title>
<path fill="none" stroke="grey" stroke-width="2" d="M32,-71.6966C32,-63.9827 32,-54.7125 32,-46.1124"/>
<polygon fill="grey" stroke="grey" stroke-width="2" points="35.5001,-46.1043 32,-36.1043 28.5001,-46.1044 35.5001,-46.1043"/>
</g>
<!-- 2 -->
<g id="node3" class="node"><title>2</title>
<path fill="none" stroke="#56d89a" stroke-width="2" stroke-dasharray="5,2" d="M47,-180C47,-180 17,-180 17,-180 11,-180 5,-174 5,-168 5,-168 5,-156 5,-156 5,-150 11,-144 17,-144 17,-144 47,-144 47,-144 53,-144 59,-150 59,-156 59,-156 59,-168 59,-168 59,-174 53,-180 47,-180"/>
<text text-anchor="middle" x="32" y="-159.5" font-family="sans" font-size="10.00">features</text>
</g>
<!-- 2&#45;&gt;1 -->
<g id="edge2" class="edge"><title>2&#45;&gt;1</title>
<path fill="none" stroke="grey" stroke-width="2" d="M32,-143.697C32,-135.983 32,-126.712 32,-118.112"/>
<polygon fill="grey" stroke="grey" stroke-width="2" points="35.5001,-118.104 32,-108.104 28.5001,-118.104 35.5001,-118.104"/>
</g>
<!-- 3 -->
<g id="node4" class="node"><title>3</title>
<path fill="none" stroke="#d85656" stroke-width="2" stroke-dasharray="5,2" d="M49,-252C49,-252 15,-252 15,-252 9,-252 3,-246 3,-240 3,-240 3,-228 3,-228 3,-222 9,-216 15,-216 15,-216 49,-216 49,-216 55,-216 61,-222 61,-228 61,-228 61,-240 61,-240 61,-246 55,-252 49,-252"/>
<text text-anchor="middle" x="32" y="-231.5" font-family="sans" font-size="10.00">download</text>
</g>
<!-- 3&#45;&gt;2 -->
<g id="edge3" class="edge"><title>3&#45;&gt;2</title>
<path fill="none" stroke="grey" stroke-width="2" d="M32,-215.697C32,-207.983 32,-198.712 32,-190.112"/>
<polygon fill="grey" stroke="grey" stroke-width="2" points="35.5001,-190.104 32,-180.104 28.5001,-190.104 35.5001,-190.104"/>
</g>
</g>
</svg>
